<svg xmlns="http://www.w3.org/2000/svg" viewBox="0 0 100 125" x="0px" y="0px"><title>Artboard 1</title><g data-name="Layer 2"><path d="M50,0a50,50,0,1,0,50,50A50,50,0,0,0,50,0Zm0,1A49.06,49.06,0,0,1,98.91,47.16a20.22,20.22,0,0,1-2.39-2.42l-.46-.52c-.5-.55-.67-.73-.66-1.39a.51.51,0,0,0-.14-.34l-.75-.8c-.24-.35-.41-.63-.58-.9A8.9,8.9,0,0,0,93,39.45c-.22-.26-.44-.51-.67-.75-.6-.63-1.22-1.16-1.82-1.68A15.63,15.63,0,0,1,88,34.49l0-.05,0,0A9.65,9.65,0,0,1,85,30.76l-.08-.23a4.33,4.33,0,0,0-.3-.66,5.3,5.3,0,0,0-.36-.51,1.38,1.38,0,0,1-.39-.68,0,0,0,0,1,0,0s0,0,0-.06l0-.08s0,0,0,0a.1.1,0,0,0,0-.05.18.18,0,0,0,0-.07l-.21-.12a1.18,1.18,0,0,0-1,.14l-.15.07a1.68,1.68,0,0,1-.62.1,4.84,4.84,0,0,1-2.66-.35,7.41,7.41,0,0,1-1.5-1.27c-.31-.31-.64-.64-1-1l-.11-.12a10.54,10.54,0,0,0-3.08-2.6,14.31,14.31,0,0,0-2.4-1l-.15-.05a3.57,3.57,0,0,1-1.46-.72l-.1-.07a18.06,18.06,0,0,1-2.8-2L66.1,19a7.65,7.65,0,0,0-.85-.86A6.79,6.79,0,0,0,64,17.34a5.23,5.23,0,0,1-1.18-.72,2.93,2.93,0,0,1-.3-.32,2,2,0,0,0-.94-.72h-.36l-.06,0,0,0h0a9.92,9.92,0,0,0-2.66,2.7l-2.31,3.36a.06.06,0,0,1,0,0s0,0,0,0a43.77,43.77,0,0,1-2.75,3.49l-.18.29a3.4,3.4,0,0,0-1.06,1.38,6.05,6.05,0,0,1-.38.69,6.55,6.55,0,0,1-.45.59,6.42,6.42,0,0,0-.68,1,7.39,7.39,0,0,0-.34.84,3.08,3.08,0,0,1-.47,1s0,0,0,0l-1.49,2.52a3.58,3.58,0,0,1-.4.61,3.65,3.65,0,0,1-.51.45l-.22.19a12.54,12.54,0,0,0-1,1l-2,2.12a2,2,0,0,0-.75-.5A1.75,1.75,0,0,1,43,37.2a1.44,1.44,0,0,1-.3-.4c-.08-.12-.15-.24-.24-.35A4.1,4.1,0,0,0,41,35.37a6.87,6.87,0,0,1-.74-.44,6.24,6.24,0,0,1-.92-.93q-.26-.3-.54-.6a12.12,12.12,0,0,0-1.35-1.12c-1.1-.84-2.2-1.66-3.31-2.48l-3.28-2.41-.16-.12a5.53,5.53,0,0,0-1.76-1,1.15,1.15,0,0,0-.81.12A14.5,14.5,0,0,0,25.83,29L23,32.9c-.18.24-.36.48-.52.73l-.18.29a4.45,4.45,0,0,1-.38.58,3.75,3.75,0,0,1-.45.44l-.24.23a11.82,11.82,0,0,0-1.3,1.56c-.22.31-.45.62-.69.91S18,38.85,17.68,39.1A10.41,10.41,0,0,0,15.11,42l-.28.4c-.94,1.36-2,2.66-3,3.92L9.9,48.7c-.34.41-.65.8-1,1.17l-.23.22a5.4,5.4,0,0,0-.71.79,5.2,5.2,0,0,0-.39.64,5.06,5.06,0,0,1-.27.46,4.3,4.3,0,0,1-1.18,1.14,8.32,8.32,0,0,1-1.74.93l-.31.12L2.5,55l-1.18.58A50.53,50.53,0,0,1,1,50,49.05,49.05,0,0,1,50,1Zm0,98A49.07,49.07,0,0,1,1.45,56.58c.24-.13.93-.46,1.49-.73.91-.45,1.48-.73,1.55-.78L4.73,55a9.61,9.61,0,0,0,1.95-1,5.15,5.15,0,0,0,1.45-1.41c.11-.17.21-.35.31-.53a5.89,5.89,0,0,1,.32-.54,4.49,4.49,0,0,1,.6-.65l.24-.24c.39-.4.74-.83,1.08-1.25l1.92-2.38c1-1.28,2.09-2.59,3.05-4l.28-.4a10.1,10.1,0,0,1,2.36-2.68A20.55,20.55,0,0,0,20,38.27c.26-.3.49-.62.73-1a10.44,10.44,0,0,1,1.18-1.43l.22-.2a7.14,7.14,0,0,0,.55-.55,5.13,5.13,0,0,0,.47-.71l.16-.26c.15-.23.31-.46.49-.69l2.86-3.84c.35-.47.71-.94,1.09-1.39a3.37,3.37,0,0,1-.29.88l-.15.25a3.64,3.64,0,0,0-.28.47,2.44,2.44,0,0,0-.19.83,3.32,3.32,0,0,1-.37.69c-.08.13-.16.25-.23.38-.25.44-.53.86-.83,1.3l-2.19,3.24c-.28.41-.55.81-.85,1.17l-.31.35c-.16.18-.32.36-.46.54a11.71,11.71,0,0,0-1,1.52.51.51,0,0,0,.19.68.57.57,0,0,0,.25.06.49.49,0,0,0,.43-.26A11.47,11.47,0,0,1,22.35,39l.42-.49c.11-.13.23-.25.33-.38A14,14,0,0,0,24,36.84l2.2-3.25c.27-.4.53-.8.77-1.21l.11.51a12.17,12.17,0,0,0,.59,2.1,2.1,2.1,0,0,1-.33.34c-.12.11-.24.22-.35.34a7.2,7.2,0,0,0-.81,1.14l-1.86,3a.5.5,0,1,0,.85.52l1.86-3a6.41,6.41,0,0,1,.7-1c.09-.1.19-.19.28-.28l.14-.13a4.07,4.07,0,0,1,.37.76,3.6,3.6,0,0,1,.09.69c0,.16,0,.31,0,.47s.06.27.09.4c-.42.56-.9,1.13-1.38,1.68a20,20,0,0,0-2,2.62,59.61,59.61,0,0,1-4.21,6,.52.52,0,0,0,.07.71.54.54,0,0,0,.32.11.48.48,0,0,0,.38-.18,60.56,60.56,0,0,0,4.3-6.13,18,18,0,0,1,1.92-2.47c.34-.4.68-.8,1-1.21.13.31.28.61.43.89A12.32,12.32,0,0,0,30,41.71c-.46.65-1,1.29-1.48,1.9s-.85,1-1.22,1.51a10.14,10.14,0,0,0-.91,1.42c-.06.12-.12.24-.17.37a4.09,4.09,0,0,1-.37.69,3.83,3.83,0,0,1-.64.63,3,3,0,0,0-1.12,1.5.51.51,0,0,0,.37.61h.12a.49.49,0,0,0,.48-.38,2.16,2.16,0,0,1,.8-1,5,5,0,0,0,.8-.8,4.35,4.35,0,0,0,.47-.87l.15-.33a9,9,0,0,1,.83-1.28c.35-.48.76-1,1.17-1.46s.81-1,1.2-1.5a3.35,3.35,0,0,0,.39.55l.37.36a4,4,0,0,1,.5.51l0,0a29.16,29.16,0,0,0-2.09,2.64l-.38.52a10.14,10.14,0,0,0-.91,1.42c-.06.12-.12.24-.17.37a4.09,4.09,0,0,1-.37.69,3.83,3.83,0,0,1-.64.63A3,3,0,0,0,26.09,52a.51.51,0,0,0,.37.61h.12a.49.49,0,0,0,.48-.38,2.16,2.16,0,0,1,.8-1,5,5,0,0,0,.8-.8,4.35,4.35,0,0,0,.47-.87l.15-.33A9,9,0,0,1,30.11,48l.38-.52c.41-.56.82-1.13,1.25-1.67,0,.06,0,.12,0,.17a5.39,5.39,0,0,1,0,1,7.08,7.08,0,0,1-.16.8c0,.14-.08.28-.11.42-.09.39-.14.79-.2,1.18a10.51,10.51,0,0,1-.23,1.31c-.07.26-.15.51-.24.76a9.36,9.36,0,0,0-.32,1.1L27.08,57c-.36.48-.73,1-1.13,1.41s-.55.58-.85.87a.5.5,0,0,0,0,.7.51.51,0,0,0,.36.15.47.47,0,0,0,.35-.15c.3-.29.61-.59.89-.9a18.21,18.21,0,0,0,1.18-1.48l2.6-3.46a12.71,12.71,0,0,1-.09,2.69,12.1,12.1,0,0,1-.54,2l-.06.17c-.14.45-.3.91-.4,1.39l0,.23c0,.16-.06.32-.1.48a3.71,3.71,0,0,1-.19.46,2.26,2.26,0,0,0-.26,1.57.49.49,0,0,0,.48.36.34.34,0,0,0,.14,0,.49.49,0,0,0,.34-.61A1.45,1.45,0,0,1,30,62a5.42,5.42,0,0,0,.22-.56c.06-.2.1-.4.14-.6l0-.21a12.16,12.16,0,0,1,.37-1.27l.06-.18A13.59,13.59,0,0,0,31.38,57a16.71,16.71,0,0,0,0-3.87h0a5.16,5.16,0,0,1,.36-1.44c.09-.27.18-.54.25-.81a7,7,0,0,0,.94.79,4.29,4.29,0,0,1,1.06.95.49.49,0,0,0,.41.22.47.47,0,0,0,.28-.09.5.5,0,0,0,.13-.7,5.2,5.2,0,0,0-1.29-1.19,3.18,3.18,0,0,1-1.17-1.2.42.42,0,0,0-.11-.15.22.22,0,0,0,0-.08c0-.37.11-.74.19-1.1l.09-.39c.06-.22.11-.45.15-.67a1.72,1.72,0,0,1,.49.62c.07.1.13.21.2.3a5.21,5.21,0,0,0,.77.9c.18.19.36.37.52.57l.26.36a4.65,4.65,0,0,0,.51.66,4.91,4.91,0,0,0,.81.65,3,3,0,0,1,.81.72.52.52,0,0,0,.42.22.5.5,0,0,0,.41-.78,3.82,3.82,0,0,0-1.07-1,3.93,3.93,0,0,1-.66-.53,4.17,4.17,0,0,1-.41-.53c-.1-.14-.19-.28-.3-.41a7.21,7.21,0,0,0-.59-.65,5.53,5.53,0,0,1-.65-.75c-.06-.09-.12-.18-.17-.27a2,2,0,0,0-1.27-1.14h0c0-.13,0-.26,0-.39a3,3,0,0,1,.1-1.42h0a0,0,0,0,0,0,0s0-.06,0-.09,0,0,0-.07v0a.24.24,0,0,0,0-.08l0-.08s0,0,0,0,0,0,0,0a3.46,3.46,0,0,0-.31-.47,5.67,5.67,0,0,0-.59-.61l-.34-.32A7.05,7.05,0,0,1,30.54,40l0-.14a6.56,6.56,0,0,1-.83-2.14c0-.14,0-.27,0-.41a4.16,4.16,0,0,0-.13-.9,4.48,4.48,0,0,0-.48-1c-.07-.11-.14-.22-.2-.33a9.3,9.3,0,0,1-.74-2.4L27.94,32c0-.12-.05-.23-.07-.34a11.24,11.24,0,0,0,1.42,1.51.49.49,0,0,0,.32.12.48.48,0,0,0,.38-.17.49.49,0,0,0,0-.7,10.9,10.9,0,0,1-2-2.28l.13-.23a3.21,3.21,0,0,0,.19-.31,4.93,4.93,0,0,0,.49-1.54,6.72,6.72,0,0,1,.17-.71,6.05,6.05,0,0,1,1.15.71l.16.13c1.1.8,2.19,1.59,3.27,2.4l3.31,2.47a11.79,11.79,0,0,1,1.24,1c.17.17.33.36.5.55a6.84,6.84,0,0,0,1.08,1.07,5.88,5.88,0,0,0,.85.52,3.38,3.38,0,0,1,1.11.8c.06.09.12.18.17.27a2.4,2.4,0,0,0,.52.65,2.78,2.78,0,0,0,.61.36c.2.09.4.18.44.29a.61.61,0,0,0,.13.15c-.17.19-.36.38-.56.57l-.29.3A2.1,2.1,0,0,1,42,39a5,5,0,0,0-.58-.65,4.28,4.28,0,0,0-.71-.46,3,3,0,0,1-.51-.33,4.1,4.1,0,0,1-.49-.52l-.2-.24a11.71,11.71,0,0,0-2.45-2,.5.5,0,1,0-.55.84,10.56,10.56,0,0,1,2.24,1.79l.19.21a4.37,4.37,0,0,0,.63.67,4.82,4.82,0,0,0,.65.42,3.14,3.14,0,0,1,.54.35,3.8,3.8,0,0,1,.45.51,3.63,3.63,0,0,0,.75.77c-.33.39-.65.79-.94,1.21l-1-1.25a4.21,4.21,0,0,0-1.11-1.12l-.32-.17-.3-.17a2.9,2.9,0,0,1-.45-.47,3,3,0,0,0-.83-.75.51.51,0,0,0-.48.89,2,2,0,0,1,.54.51,3.26,3.26,0,0,0,.65.63,2.91,2.91,0,0,0,.42.25l.24.13a3.6,3.6,0,0,1,.86.88l1.16,1.5-.32.49a2.25,2.25,0,0,1-1.18-.85.5.5,0,1,0-.81.58,3.26,3.26,0,0,0,1.44,1.13l-.06.1a.5.5,0,0,0,.16.69.5.5,0,0,0,.26.08.52.52,0,0,0,.43-.24,23.77,23.77,0,0,1,2.94-4q.18-.2.36-.36a8.72,8.72,0,0,0,1.12-1.29.48.48,0,0,0,.08-.18l2-2.11a10.42,10.42,0,0,1,.94-.94l.21-.17a4.81,4.81,0,0,0,.63-.58,5.94,5.94,0,0,0,.52-.75l1.45-2.46a4.21,4.21,0,0,0,.61-1.24,4.76,4.76,0,0,1,.28-.71,4.54,4.54,0,0,1,.57-.8c.18-.22.35-.44.51-.67s.31-.54.44-.79a2.39,2.39,0,0,1,.81-1.07l.33-.45a41.23,41.23,0,0,0,2.77-3.52s0,0,0,0l0,0,2.3-3.37A10.19,10.19,0,0,1,60.93,17c0,.38.06.76.11,1.14a45.93,45.93,0,0,0-6.35,9.46.5.5,0,0,0,.23.67.43.43,0,0,0,.22.06.5.5,0,0,0,.45-.28,44.32,44.32,0,0,1,5.68-8.62l0,.13a7.78,7.78,0,0,1,.17.81,5.69,5.69,0,0,1,.06.83,10.12,10.12,0,0,0-2,2.42c-1.76,2.67-3.47,5.43-5.08,8.2a.49.49,0,0,0,.18.68.47.47,0,0,0,.25.07.5.5,0,0,0,.43-.25c1.6-2.75,3.3-5.5,5.06-8.15a12.65,12.65,0,0,1,1.21-1.62c0,.61,0,1.21.11,1.82a3.74,3.74,0,0,0-1,2,5.78,5.78,0,0,1-.35,1.11,6.83,6.83,0,0,1-.88,1.28,98.92,98.92,0,0,0-7,9.88l-.13.19a17.08,17.08,0,0,1-1.35,2,16.85,16.85,0,0,1-1.73,1.76c-.38.35-.76.71-1.12,1.08A31.26,31.26,0,0,0,46,46.25L43.06,50a.5.5,0,0,0,.09.7.5.5,0,0,0,.3.11.53.53,0,0,0,.4-.19l2.93-3.76a29.5,29.5,0,0,1,2.11-2.51c.35-.36.72-.71,1.09-1.05a18.75,18.75,0,0,0,1.81-1.86,18.18,18.18,0,0,0,1.44-2.1l.12-.2a97.34,97.34,0,0,1,6.93-9.81,7.26,7.26,0,0,0,1-1.44,7.45,7.45,0,0,0,.42-1.29c0-.22.11-.42.17-.61h0l.12.29a4.27,4.27,0,0,0,.65,1.32c.1.14.2.28.31.41l.19.26a4.48,4.48,0,0,1-.7,1.16c-.12.17-.25.33-.35.49a8,8,0,0,0-.45.81c-.07.14-.14.28-.22.41a12.37,12.37,0,0,1-2.71,3,.51.51,0,0,0,0,.71.51.51,0,0,0,.38.16.5.5,0,0,0,.33-.13,13.43,13.43,0,0,0,2.92-3.28c.08-.15.16-.3.23-.45a6,6,0,0,1,.39-.7q.15-.22.33-.45c.14-.19.29-.4.42-.61h0c.17.55.35,1.13.55,1.7a9.51,9.51,0,0,0-1.81,2.11l-.49.69A23.33,23.33,0,0,1,60,36.15a19,19,0,0,0-2.65,3.36.51.51,0,0,0,.19.68.54.54,0,0,0,.25.06.5.5,0,0,0,.43-.25,18.11,18.11,0,0,1,2.51-3.17,27.28,27.28,0,0,0,2-2.3c.18-.23.34-.48.51-.72a9.58,9.58,0,0,1,1.36-1.69,11,11,0,0,0,.62,1.3,68.17,68.17,0,0,0-4.63,5.7,6.77,6.77,0,0,0-.71,1.12c0,.1-.08.2-.13.3a1.6,1.6,0,0,1-.44.71.52.52,0,0,0-.22.31c-2,2.83-4,5.8-5.76,8.83,0,0,0,0,0,0L49.75,55a.47.47,0,0,0-.09.28L48,56.22l-.95.57-.59.38a6.73,6.73,0,0,0-2.16,2.43c-.05.09-.09.19-.14.29a13.1,13.1,0,0,1-2.5,2.44A14.41,14.41,0,0,0,39,65a11,11,0,0,1-2,2c-.36.29-.74.59-1.15,1a10.67,10.67,0,0,1-1.15.8,6.53,6.53,0,0,0-2,1.63.5.5,0,0,0,.41.78.52.52,0,0,0,.42-.22,6.06,6.06,0,0,1,1.69-1.35,9.69,9.69,0,0,0,1.29-.9c.39-.35.75-.64,1.1-.91a11.9,11.9,0,0,0,2.21-2.14,13.28,13.28,0,0,1,2.5-2.46l.68-.55c-.31.8-.58,1.61-.85,2.43L41.81,66a13.75,13.75,0,0,0-.57,2.1l0,.27c0,.14-.05.27-.07.4l0,0-.13,0a7.38,7.38,0,0,0-4,2.57A8.16,8.16,0,0,1,35,73a11.56,11.56,0,0,0-1.72,1.3.5.5,0,0,0,0,.71.48.48,0,0,0,.7,0,10.86,10.86,0,0,1,1.57-1.17,9.09,9.09,0,0,0,2.15-1.75,5.35,5.35,0,0,1,2.73-1.93l-.13.18a19.6,19.6,0,0,0-1.2,2L36.55,77l0,.1a.49.49,0,0,0-.14.11,27.55,27.55,0,0,1-3.26,3.13.52.52,0,0,0-.07.71.5.5,0,0,0,.39.18.51.51,0,0,0,.31-.11,28.84,28.84,0,0,0,3.38-3.25.5.5,0,0,0,.1-.19.55.55,0,0,0,.2-.2L40,72.82a18,18,0,0,1,1.13-1.9l.15-.2a7,7,0,0,0,.45-.7,2.25,2.25,0,0,0,.53.29c.21.08.43.14.65.2a4.61,4.61,0,0,1,.53.15,4.92,4.92,0,0,1,1,.55l4.78,3.18a.57.57,0,0,0,.28.08.52.52,0,0,0,.42-.22.51.51,0,0,0-.14-.7L45,70.37a5.33,5.33,0,0,0-1.15-.64,4.71,4.71,0,0,0-.64-.19,5.52,5.52,0,0,1-.54-.16,1,1,0,0,1-.51-.37c0-.15,0-.3.08-.44l0-.26a12.78,12.78,0,0,1,.52-2l.36-1A36.17,36.17,0,0,1,44.78,61h0a11.62,11.62,0,0,1,2.88,2.49.5.5,0,0,0,.39.18.51.51,0,0,0,.32-.12.49.49,0,0,0,.06-.7,12.69,12.69,0,0,0-3.13-2.71l-.1,0A5.87,5.87,0,0,1,47.06,58l.55-.34.94-.56c.53-.32,1.07-.63,1.66-1l7.56-4.36L58,51.5l1.15-.8.5.25.32.15a8.79,8.79,0,0,1,.87.53,5.59,5.59,0,0,0,1.63.84l.14,0a.51.51,0,0,0,.48-.37.5.5,0,0,0-.35-.61,4.92,4.92,0,0,1-1.35-.72c-.31-.2-.63-.41-1-.59l-.32-.15.12-.08a3,3,0,0,1,.95-.5l.31,0a3.54,3.54,0,0,0,.45-.08,3.62,3.62,0,0,0,.71-.29c1.6-.85,4.68-2.66,5.23-3a2.25,2.25,0,0,1,.75.39L71,48.11a.46.46,0,0,0,.29.1.5.5,0,0,0,.41-.22.49.49,0,0,0-.12-.69l-2.35-1.66a3.81,3.81,0,0,0-.68-.42,3.23,3.23,0,0,0,.16-1.66c0-.34-.13-.67-.21-1a7.77,7.77,0,0,1-.22-1,8,8,0,0,1,0-1.1c0-.29,0-.58,0-.87A12.52,12.52,0,0,0,67.8,37c-.1-.37-.2-.74-.27-1.1a8,8,0,0,1,2,1.63.48.48,0,0,0,.39.19.47.47,0,0,0,.31-.12.49.49,0,0,0,.07-.7,10.09,10.09,0,0,0-3-2.33.39.39,0,0,0-.1-.08.25.25,0,0,0,0-.07,14.3,14.3,0,0,1-2.5-5.29,4.56,4.56,0,0,0-.34-.9,5.39,5.39,0,0,0-.54-.83c-.1-.12-.19-.25-.28-.38A3.32,3.32,0,0,1,62.9,26l-.08-.17,0-.3,1.69,1.7a.54.54,0,0,0,.36.14.52.52,0,0,0,.35-.14.5.5,0,0,0,0-.71l-1.85-1.85a1.33,1.33,0,0,0-.58-.33l-.1,0c-.06-.69-.12-1.38-.12-2.06v-.67a.46.46,0,0,0,0-.26,6.25,6.25,0,0,0-.07-1.05,8.76,8.76,0,0,0-.18-.89l-.1-.4a12.52,12.52,0,0,1-.24-1.8c.07.07.13.15.21.22a5.76,5.76,0,0,0,1.4.88,4.27,4.27,0,0,1,1.79,1.37c.13.14.26.29.39.42a17.45,17.45,0,0,0,3,2.19,4.56,4.56,0,0,0,1.81.91l.15.05a13.85,13.85,0,0,1,2.22.94,9.72,9.72,0,0,1,2.82,2.38l.17.19a11.26,11.26,0,0,1,1,.94,8.52,8.52,0,0,0,1.71,1.43,4.41,4.41,0,0,0,2.3.52c.32,0,.63,0,.92,0a3,3,0,0,0,.84-.15,5.67,5.67,0,0,0-.15.69c-.19.07-.52.19-.59.2l-.08,0-.55.09a6.29,6.29,0,0,1-1.7.24l-.57,0a.5.5,0,0,0,0,1h0l.55,0a6.82,6.82,0,0,0,1.88-.26l.36-.06a2,2,0,0,0,.49-.09c0,.31,0,.62,0,.92a11.86,11.86,0,0,0-2.84.71.5.5,0,0,0,.19,1,.46.46,0,0,0,.19,0,11.47,11.47,0,0,1,2.51-.64,3.53,3.53,0,0,1,0,.65,3.35,3.35,0,0,1-.07.44l-1.48.41a.5.5,0,0,0-.34.62.49.49,0,0,0,.48.36h.13l1-.29A11.22,11.22,0,0,0,82,36.82V37a2.6,2.6,0,0,1-.13,1.18l-.09.17a2,2,0,0,0-.2.38,2.51,2.51,0,0,0,0,1.21,1.88,1.88,0,0,1,0,.61.5.5,0,0,0,.41.58h.08a.5.5,0,0,0,.5-.42,3,3,0,0,0,0-.91,1.57,1.57,0,0,1,0-.72,1.55,1.55,0,0,1,.12-.22c0-.08.09-.16.13-.24A3.32,3.32,0,0,0,83,37v-.19a10.46,10.46,0,0,1,.19-2.16l0-.14a5,5,0,0,0,.11-.66,5.6,5.6,0,0,0,0-.83l0-.23a1.76,1.76,0,0,1,0-.23s0,0,0,0v0A9.41,9.41,0,0,1,83.49,30h0a2.63,2.63,0,0,1,.29.39,4.46,4.46,0,0,1,.22.5l.09.25a10.68,10.68,0,0,0,3.18,4,16.64,16.64,0,0,0,2.59,2.64c.58.51,1.18,1,1.74,1.62.22.23.43.46.63.7a7.54,7.54,0,0,1,.85,1.21,10.36,10.36,0,0,0,.66,1l.66.71a2.7,2.7,0,0,0,.91,1.86l.46.52A12.6,12.6,0,0,0,99,48.35c0,.55,0,1.1,0,1.65A49.05,49.05,0,0,1,50,99Zm9.68-49.86c-.77.52-1.53,1-2.28,1.58l-.2.21L57,51l.24-.62a5.64,5.64,0,0,1,.47-1c.09-.14.19-.27.29-.4a3.94,3.94,0,0,0,.38-.53.5.5,0,1,0-.85-.52,4.48,4.48,0,0,1-.32.44,4,4,0,0,0-.34.47,6.35,6.35,0,0,0-.57,1.25,3.62,3.62,0,0,1-.71,1.35.48.48,0,0,0-.13.49l-3.77,2.18L54.11,51a.34.34,0,0,0,.06-.12h0a106.15,106.15,0,0,1,5.87-9v0a2.77,2.77,0,0,0,.61-1l.12-.26a5.85,5.85,0,0,1,.61-1,66.23,66.23,0,0,1,4.36-5.39c.12.17.25.33.38.49v0A9.85,9.85,0,0,1,64,38.17l-.62.73c-.75.93-1.42,1.9-2.19,3.06-1.06,1.6-2.1,3.26-3.09,4.92a.48.48,0,0,0,.17.68.47.47,0,0,0,.25.07.49.49,0,0,0,.43-.24c1-1.65,2-3.29,3.08-4.88a36,36,0,0,1,2.13-3c.2-.25.4-.49.61-.73a15.56,15.56,0,0,0,1.86-2.55c.08.34.16.68.25,1a10.88,10.88,0,0,1,.44,2.32c0,.27,0,.54,0,.8a1.69,1.69,0,0,1,0,.23.7.7,0,0,0-.17.09,26.36,26.36,0,0,0-3.27,3.15A25.86,25.86,0,0,1,60.61,47a.5.5,0,0,0,.3.9.54.54,0,0,0,.3-.1,26,26,0,0,0,3.34-3.2,28.34,28.34,0,0,1,2.76-2.72,9.79,9.79,0,0,0,.21,1c.07.3.15.6.19.9a1.91,1.91,0,0,1-.28,1.46s-.05,0-.06.05c-.58.34-3.61,2.12-5.18,2.95a1.77,1.77,0,0,1-.49.21,1.91,1.91,0,0,1-.33.06L61,48.5A3.88,3.88,0,0,0,59.68,49.14Z"/><path d="M20.15,42.07a.5.5,0,1,0-.69-.72L17,43.64a8.92,8.92,0,0,0-.8.82,9.92,9.92,0,0,0-.87,1.31l-.89,1.54a.49.49,0,0,0,.18.68.47.47,0,0,0,.25.07.5.5,0,0,0,.43-.25l.9-1.53A8,8,0,0,1,17,45.1a7.1,7.1,0,0,1,.72-.73Z"/><path d="M23.67,41.3a.49.49,0,0,0-.7.06,39.85,39.85,0,0,0-5.47,8.57.49.49,0,0,0,.24.66.41.41,0,0,0,.21,0,.48.48,0,0,0,.45-.28A39.53,39.53,0,0,1,23.73,42,.49.49,0,0,0,23.67,41.3Z"/><path d="M23.33,50.44A43.83,43.83,0,0,0,19.51,55a.51.51,0,0,0,.11.7.46.46,0,0,0,.29.1.49.49,0,0,0,.41-.21,43.09,43.09,0,0,1,3.73-4.47.5.5,0,0,0,0-.71A.5.5,0,0,0,23.33,50.44Z"/><path d="M45.11,41.54a.49.49,0,0,0,.38-.18,74.42,74.42,0,0,0,5.38-7l.38-.6a11.23,11.23,0,0,1,2.85-3.42.5.5,0,0,0-.56-.83,12,12,0,0,0-3.13,3.71l-.38.59a73.32,73.32,0,0,1-5.3,6.9.5.5,0,0,0,.38.82Z"/><path d="M53.52,33.15c-.94,1.15-1.85,2.34-2.73,3.55a.51.51,0,0,0,.11.7.53.53,0,0,0,.3.09.51.51,0,0,0,.4-.2c.87-1.2,1.77-2.38,2.69-3.52a.49.49,0,1,0-.77-.62Z"/><path d="M42.88,47.06a.52.52,0,0,0,.38-.17l7.41-8.46a.51.51,0,0,0,0-.71.51.51,0,0,0-.71.05l-7.41,8.46a.5.5,0,0,0,0,.7A.5.5,0,0,0,42.88,47.06Z"/><path d="M44.82,53A.59.59,0,0,0,45,53a.51.51,0,0,0,.45-.29,19.15,19.15,0,0,1,3.23-4.34L52.64,44c.5-.56,1-1.13,1.48-1.73A32.66,32.66,0,0,0,56,39.54l2.27-3.63a.5.5,0,0,0-.15-.69.51.51,0,0,0-.69.16L55.14,39c-.57.9-1.15,1.83-1.81,2.68-.44.57-.95,1.13-1.44,1.68L48,47.73a20,20,0,0,0-3.38,4.58A.5.5,0,0,0,44.82,53Z"/><path d="M56.63,40.83A121,121,0,0,1,46.41,54.45a.49.49,0,0,0,.05.7.45.45,0,0,0,.32.13.49.49,0,0,0,.38-.18A120.88,120.88,0,0,0,57.47,41.37a.5.5,0,1,0-.84-.54Z"/><path d="M51.22,65.12a1.54,1.54,0,0,0-.6-.46.49.49,0,0,0-.68.17.51.51,0,0,0,.18.69,1.21,1.21,0,0,1,.32.22,2.61,2.61,0,0,0,.37.39.49.49,0,0,0,.34.14.5.5,0,0,0,.34-.87A2.8,2.8,0,0,1,51.22,65.12Z"/><path d="M60.05,56.55a3.58,3.58,0,0,1-1.34-.93l-.12-.11a6.33,6.33,0,0,0-1.26-1l-.57-.34a.5.5,0,0,0-.69.15.51.51,0,0,0,.16.69l.59.36a5,5,0,0,1,1.09.84l.12.11a4.46,4.46,0,0,0,1.75,1.15l.14,0a.5.5,0,0,0,.13-1Z"/><path d="M73.22,57.7a1.42,1.42,0,0,0-.35-.48,1.57,1.57,0,0,0-1.53-.1,20.27,20.27,0,0,1-5.18.37.51.51,0,0,0-.57.42.51.51,0,0,0,.43.57,20.64,20.64,0,0,0,5.62-.4A1.63,1.63,0,0,1,72,58a6.09,6.09,0,0,1-.13.94,2.56,2.56,0,0,0-.77.21,9.91,9.91,0,0,1-3.65.64.51.51,0,0,0-.61.36.51.51,0,0,0,.37.61,2.77,2.77,0,0,0,.62.06,12.57,12.57,0,0,0,3.63-.74c0,.12-.11.24-.17.36a11.76,11.76,0,0,0-.48,1.08l-.06,0a4.81,4.81,0,0,1-1.72.82.49.49,0,0,0-.41.57.5.5,0,0,0,.49.42h.08a5.29,5.29,0,0,0,1.37-.5c0,.16,0,.32,0,.48a2.06,2.06,0,0,1-.22,1.34.52.52,0,0,0,.1.71.57.57,0,0,0,.3.1.51.51,0,0,0,.4-.2,3,3,0,0,0,.42-2,4.79,4.79,0,0,1,0-.76,5,5,0,0,1,.61-1.66,10.77,10.77,0,0,0,.54-1.24c0-.14.07-.31.11-.46a35.69,35.69,0,0,1,1.69,4.1,9.46,9.46,0,0,1,.58,2.62.5.5,0,0,0,.5.48h0a.5.5,0,0,0,.48-.52,10.71,10.71,0,0,0-.63-2.9A36.29,36.29,0,0,0,73.22,57.7Z"/></g></svg>